<svg viewBox="0 0 1080 1080" fill="none" xmlns="http://www.w3.org/2000/svg">      <defs>  <filter id="filter" x="-20%" y="-20%" width="140%" height="140%" filterUnits="objectBoundingBox" primitiveUnits="userSpaceOnUse" color-interpolation-filters="linearRGB">    <feMorphology operator="dilate" radius="20 20" in="SourceAlpha" result="morphology"/>    <feFlood flood-color="#ffffff" flood-opacity="1" result="flood"/>    <feComposite in="flood" in2="morphology" operator="in" result="composite"/>    <feMerge result="merge">          <feMergeNode in="composite" result="mergeNode"/>      <feMergeNode in="SourceGraphic" result="mergeNode1"/>      </feMerge>  </filter></defs>      <g id="notion-avatar" filter="url(#filter)">        <g id="notion-avatar-face" fill="#ffffff">      <!--?xml version="1.0" encoding="UTF-8"?-->    <title>Face/ 9</title>    <g id="Face/-9" stroke="none" stroke-width="1" fill-rule="evenodd" stroke-linecap="round" stroke-linejoin="round">        <path d="M532,379 C664.54834,379 772,486.45166 772,619 C772,751.54834 704.54834,919 592,919 C506.683174,919 378.324367,822.776611 321.205121,718.475443 C318.188736,718.821948 315.115161,719 312,719 C267.81722,719 232,683.18278 232,639 C232,599.134956 261.158843,566.080325 299.312086,560.00055 C325.599297,455.979213 419.809919,379 532,379 Z M295.858895,624.545187 L304.141105,655.454813" id="Path" stroke="#000000" stroke-width="24"/>    </g>    </g><g id="notion-avatar-nose">      <!--?xml version="1.0" encoding="UTF-8"?-->    <title>Nose/ 9</title>    <g id="Nose/-9" stroke="none" stroke-width="1" fill="none" fill-rule="evenodd" stroke-linecap="round" stroke-linejoin="round">        <path d="M631,694.380659 C663.848549,704.811956 684.630284,697.576454 693.345205,672.674154 C706.417587,635.320703 637.033407,606.392531 660.161467,579" id="Path" stroke="#000000" stroke-width="16"/>    </g>    </g><g id="notion-avatar-mouth">      <!--?xml version="1.0" encoding="UTF-8"?-->    <title>Mouth/ 2</title>    <g id="Mouth/-2" stroke="none" stroke-width="1" fill="none" fill-rule="evenodd" stroke-linecap="round" stroke-linejoin="round">        <path d="M572,769 C585.775809,774.333333 599.109142,777 612,777 C624.890858,777 638.224191,774.333333 652,769" id="Path" stroke="#000000" stroke-width="16"/>    </g>    </g><g id="notion-avatar-eyes">      <!--?xml version="1.0" encoding="UTF-8"?-->    <title>Eyes/ 6</title>    <g id="Eyes/-6" stroke="none" stroke-width="1" fill="none" fill-rule="evenodd">        <g id="Group" transform="translate(518.000000, 518.575690)">            <circle id="Oval" fill="#000000" cx="48.2285714" cy="20" r="20"/>            <path d="M0,22.4243101 C16,9.09097677 32,2.42431011 48,2.42431011 C64,2.42431011 80,9.09097677 96,22.4243101" id="Path" stroke="#000000" stroke-width="12" stroke-linecap="round" stroke-linejoin="round"/>            <circle id="Oval" fill="#000000" transform="translate(193.771429, 20.000000) scale(-1, 1) translate(-193.771429, -20.000000) " cx="193.771429" cy="20" r="20"/>            <path d="M146,22.4243101 C162,9.09097677 178,2.42431011 194,2.42431011 C210,2.42431011 226,9.09097677 242,22.4243101" id="Path" stroke="#000000" stroke-width="12" stroke-linecap="round" stroke-linejoin="round" transform="translate(194.000000, 12.424310) scale(-1, 1) translate(-194.000000, -12.424310) "/>        </g>    </g>    </g><g id="notion-avatar-eyebrows">      <!--?xml version="1.0" encoding="UTF-8"?-->    <title>Eyebrows/ 2</title>    <g id="Eyebrows/-2" stroke="none" stroke-width="1" fill="none" fill-rule="evenodd" stroke-linecap="round" stroke-linejoin="round">        <path d="M570,485.718496 C590.574398,488.795594 605.574398,494.964927 615,504.226493 C600,498.618009 585,495.813767 570,495.813767 C555,495.813767 536.666667,498.618009 515,504.226493 L525,490.766132 C534.425602,484.323943 549.425602,482.641398 570,485.718496 Z M708,485.718496 C728.574398,482.641398 743.574398,484.323943 753,490.766132 L753,490.766132 L763,504.226493 C741.333333,498.618009 723,495.813767 708,495.813767 C693,495.813767 678,498.618009 663,504.226493 C672.425602,494.964927 687.425602,488.795594 708,485.718496 Z" id="Combined-Shape" stroke="#000000" stroke-width="16" fill="#000000"/>    </g>    </g><g id="notion-avatar-glasses">      <!--?xml version="1.0" encoding="UTF-8"?-->    <title>Glasses/ 1</title>    <g id="Glasses/-1" stroke="none" stroke-width="1" fill="none" fill-rule="evenodd" stroke-linecap="round" stroke-linejoin="round">        <g id="Group" transform="translate(293.311103, 479.000000)" stroke="#000000" stroke-width="16">            <circle id="Oval" cx="272.688897" cy="60" r="60"/>            <circle id="Oval" cx="416.688897" cy="60" r="60"/>            <path d="M368.688897,13 C360.688897,7.66666667 352.688897,5 344.688897,5 C336.688897,5 328.688897,7.66666667 320.688897,13" id="Path"/>            <line x1="216.688897" y1="36" x2="1" y2="79.3393577" id="Path" transform="translate(108.844448, 57.669679) rotate(1.361411) translate(-108.844448, -57.669679) "/>        </g>    </g>    </g><g id="notion-avatar-hair">      <!--?xml version="1.0" encoding="UTF-8"?-->    <title>Hairstyle/ 11</title>    <g id="Hairstyle/-11" stroke="none" stroke-width="1" fill="none" fill-rule="evenodd" stroke-linecap="round" stroke-linejoin="round">        <path d="M287.145773,564.824988 L328.116663,564.824988 L366,655 C368,609 370.666667,578.666667 374,564 C377.333333,549.333333 386,536 400,524 C404.686858,511.205454 408.020191,498.538788 410,486 C411.979809,473.461212 412.646475,460.794546 412,448 C431.277968,442.027683 448.944635,435.027683 465,427 C481.055365,418.972317 496.055365,409.638984 510,399 C541.018923,414.567133 564.018923,423.900467 579,427 C598.333333,431 625.666667,431 661,427 C677,435 690.333333,444.666667 701,456 C711.666667,467.333333 719.333333,477 724,485 C739.337022,483.068501 749.003689,474.068501 753,458 C758.994467,433.897248 749.308457,421.45399 753,385 C755.461029,360.69734 761.794362,334.364006 772,306 C756.671455,311.760083 745.671455,315.093417 739,316 C713.953321,319.403591 695.432317,316 684,316 C636.89228,316 645,282 615,272 C595,265.333333 574.900668,265.39119 554.702003,272.17357 C537.058392,259.349997 518.824391,250.958807 500,247 C481.175609,243.041193 457.508942,242.041193 429,244 C432.618992,252.559514 429.952325,263.892847 421,278 C407.571512,299.160729 404,300 392,311 C380,322 362,318 347,335 C337,346.333333 333,359.666667 335,375 C327.529566,375.74088 320.196232,377.74088 313,381 C305.803768,384.25912 299.470434,389.592453 294,397 C316.094259,401.247038 325.477218,404.098045 322.148877,405.553022 C298.10323,416.064523 271.638366,440.518688 265,458 C256.983334,479.110894 264.365258,514.719224 287.145773,564.824988 Z" id="Path" stroke="#000000" stroke-width="12" fill="#000000"/>    </g>    </g><g id="notion-avatar-accessories">      <g id="Accessories/ 12"><g id="Group"><path id="Path" d="M848.364 445.584C849.787 445.071 851.352 445.115 852.744 445.707L850.397 451.229C852.744 445.707 852.745 445.707 852.747 445.708L852.75 445.709L852.759 445.713L852.787 445.725L852.876 445.763C852.95 445.796 853.054 445.841 853.185 445.899C853.448 446.015 853.819 446.182 854.28 446.396C855.199 446.822 856.483 447.439 857.966 448.21C860.889 449.731 864.778 451.952 868.204 454.609C871.355 457.053 875.296 460.743 876.573 465.471C877.29 468.125 877.144 471.033 875.712 473.814C874.356 476.446 872.1 478.476 869.469 480.075C863.829 483.501 856.637 484.18 849.944 483.852C843.082 483.515 835.794 482.064 829.258 480.353C822.687 478.634 816.679 476.6 812.325 475.003C810.143 474.202 808.364 473.506 807.122 473.007C806.501 472.758 806.014 472.557 805.677 472.417C805.509 472.347 805.378 472.292 805.287 472.253L805.18 472.208L805.15 472.195L805.14 472.191L805.137 472.19C805.136 472.189 805.135 472.189 807.503 466.676L805.135 472.189C802.871 471.216 801.432 468.958 801.506 466.495C801.58 464.033 803.152 461.866 805.47 461.031L848.364 445.584Z" fill="white" stroke="black" stroke-width="12" stroke-linecap="round" stroke-linejoin="round"/><path id="Path_2" d="M861.983 450.136C864.506 451.321 865.881 454.088 865.301 456.815C864.721 459.542 862.34 461.51 859.552 461.566L859.551 461.566L859.536 461.566L859.47 461.568C859.409 461.569 859.315 461.571 859.191 461.575C858.941 461.581 858.568 461.592 858.084 461.609C857.116 461.642 855.708 461.697 853.968 461.787C850.482 461.968 845.689 462.285 840.45 462.832C829.639 463.959 818.065 465.961 811.673 469.176C782.246 483.973 750.71 499.226 720.703 510.561C690.825 521.848 661.816 529.509 637.597 528.591C594.287 526.948 545.131 507.141 507.283 488.165C488.255 478.625 471.883 469.19 460.266 462.139C454.454 458.612 449.826 455.678 446.644 453.62C445.052 452.591 443.822 451.781 442.985 451.225C442.566 450.947 442.246 450.733 442.028 450.587L441.908 450.506L441.779 450.419L441.713 450.374L441.695 450.362L441.689 450.358C441.688 450.357 441.686 450.356 445.06 445.395L441.686 450.356C439.683 448.994 438.696 446.561 439.183 444.188C439.67 441.815 441.536 439.968 443.914 439.505L721.566 385.467C722.815 385.223 724.11 385.384 725.262 385.925L861.983 450.136Z" fill="white" stroke="black" stroke-width="12" stroke-linecap="round" stroke-linejoin="round"/><path id="Path_3" d="M742.712 401.356L748.621 400.312C749.13 403.194 747.486 406.022 744.73 407.006L742.712 401.356ZM742.712 401.356C748.621 400.312 748.62 400.309 748.619 400.304L748.617 400.291L748.61 400.25C748.604 400.217 748.595 400.17 748.584 400.111C748.562 399.993 748.531 399.825 748.489 399.607C748.405 399.173 748.279 398.542 748.108 397.73C747.765 396.106 747.239 393.752 746.495 390.777C745.007 384.828 742.644 376.386 739.126 366.312C732.097 346.184 720.417 319.43 701.806 293.031C664.434 240.023 599.167 188.634 488.669 195.067C378.312 201.491 322.938 256.206 295.494 309.669C281.857 336.234 275.177 362.341 271.899 381.774C270.257 391.502 269.462 399.591 269.078 405.274C268.886 408.116 268.796 410.36 268.754 411.909C268.734 412.683 268.725 413.284 268.721 413.7C268.72 413.908 268.719 414.07 268.719 414.184C268.719 414.241 268.719 414.286 268.72 414.319L268.72 414.359L268.72 414.372C268.72 414.377 268.72 414.381 274.72 414.327M742.712 401.356C744.73 407.006 744.729 407.007 744.728 407.007L744.725 407.008L744.714 407.012L744.672 407.027L744.508 407.085C744.364 407.136 744.151 407.212 743.872 407.311C743.314 407.508 742.491 407.798 741.428 408.169C739.303 408.913 736.215 409.984 732.358 411.298C724.646 413.926 713.849 417.531 701.507 421.436C676.883 429.227 645.881 438.29 620.931 443.146C596.034 447.992 557.102 452.549 524.587 455.885C508.288 457.557 493.533 458.929 482.852 459.883C477.511 460.36 473.188 460.733 470.198 460.986C468.703 461.113 467.542 461.21 466.753 461.275C466.359 461.308 466.058 461.333 465.855 461.349L465.625 461.368L465.566 461.373L465.551 461.374L465.548 461.375C465.547 461.375 465.546 461.375 465.061 455.394M274.72 414.327C270.992 419.028 270.993 419.029 270.994 419.03L270.998 419.033L271.006 419.039L271.031 419.059L271.116 419.126C271.189 419.182 271.291 419.262 271.423 419.364C271.687 419.567 272.069 419.858 272.564 420.228C273.553 420.966 274.994 422.017 276.837 423.298C280.521 425.858 285.828 429.346 292.372 433.1C305.414 440.58 323.591 449.24 343.776 453.595C363.727 457.9 394.227 459.822 419.367 460.692C432.015 461.13 443.442 461.306 451.706 461.372C455.839 461.405 459.184 461.41 461.499 461.408C462.656 461.406 463.556 461.403 464.168 461.4C464.475 461.398 464.709 461.397 464.867 461.396L465.048 461.395L465.095 461.394L465.107 461.394L465.11 461.394C465.111 461.394 465.112 461.394 465.061 455.394M274.72 414.327L270.992 419.028C269.571 417.902 268.736 416.194 268.72 414.381L274.72 414.327ZM465.061 455.394L465.546 461.375C465.402 461.386 465.257 461.393 465.112 461.394L465.061 455.394Z" fill="white" stroke="black" stroke-width="12" stroke-linecap="round" stroke-linejoin="round"/><path id="Oval" d="M467.691 222.831C459.814 223.798 452.181 223.033 446.139 220.727C440.381 218.529 434.472 214.203 433.606 207.15C432.739 200.096 437.427 194.469 442.482 190.944C447.787 187.244 455.008 184.655 462.885 183.688C470.762 182.721 478.395 183.486 484.437 185.792C490.196 187.99 496.105 192.316 496.971 199.369C497.837 206.423 493.15 212.05 488.094 215.575C482.789 219.275 475.568 221.864 467.691 222.831Z" fill="white" stroke="black" stroke-width="12" stroke-linecap="round" stroke-linejoin="round"/></g></g>    </g><g id="notion-avatar-details">      <!--?xml version="1.0" encoding="UTF-8"?-->    <title>Details/ 7</title>    <g id="Details/-7" stroke="none" stroke-width="1" fill="none" fill-rule="evenodd" stroke-linecap="round" stroke-linejoin="round">        <path d="M554,440 C578,434.666667 602,432 626,432 C650,432 674,434.666667 698,440" id="Path" stroke="#000000" stroke-width="2"/>        <path d="M578,448 C594,445.333333 610,444 626,444 C642,444 658,445.333333 674,448" id="Path" stroke="#000000" stroke-width="2"/>    </g>    </g><g id="notion-avatar-beard">      <g id="Beard/ 15"><g id="Group"><g id="Combined Shape"><path fill-rule="evenodd" clip-rule="evenodd" d="M369.784 644H359.784C359.784 644 341.471 799.286 411.784 857C482.098 914.714 569.784 925 615 925C660.216 925 690.216 905 707 887C723.784 869 756.082 808.293 743 804C740.172 803.072 729.363 801.658 713.81 800.202C710.947 812.016 705.396 824.233 697.53 835C696.321 836.654 695.156 838.263 694.023 839.826C675.301 865.663 665.637 879 621.229 879C574.135 879 564.884 878 525.238 840C514.752 829.95 507.447 819.544 502.766 809.407C500.067 811.055 497.593 812.617 495.291 814.07C475.74 826.412 468.584 830.929 441 814C406.784 793 369.784 644 369.784 644Z" fill="black"/><path d="M359.784 644V638C356.742 638 354.182 640.276 353.826 643.297L359.784 644ZM369.784 644L375.607 642.554C374.943 639.878 372.541 638 369.784 638V644ZM411.784 857L415.591 852.362H415.591L411.784 857ZM743 804L741.129 809.701L743 804ZM713.81 800.202L714.369 794.228C711.402 793.95 708.681 795.893 707.979 798.789L713.81 800.202ZM697.53 835L702.375 838.539L702.375 838.539L697.53 835ZM694.023 839.826L698.881 843.347H698.881L694.023 839.826ZM525.238 840L521.086 844.332H521.086L525.238 840ZM502.766 809.407L508.214 806.892C507.496 805.338 506.149 804.165 504.511 803.667C502.873 803.169 501.101 803.394 499.64 804.286L502.766 809.407ZM495.291 814.07L492.088 808.997L492.088 808.997L495.291 814.07ZM441 814L444.139 808.886L441 814ZM359.784 650H369.784V638H359.784V650ZM415.591 852.362C382.46 825.168 369.587 774.171 365.392 728.311C363.317 705.625 363.406 684.684 364.017 669.405C364.322 661.772 364.757 655.567 365.114 651.284C365.292 649.142 365.451 647.482 365.565 646.364C365.622 645.806 365.667 645.383 365.698 645.103C365.713 644.963 365.725 644.859 365.733 644.792C365.736 644.759 365.739 644.735 365.741 644.72C365.742 644.712 365.742 644.707 365.743 644.704C365.743 644.703 365.743 644.702 365.743 644.702C365.743 644.702 365.743 644.703 359.784 644C353.826 643.297 353.825 643.299 353.825 643.302C353.825 643.304 353.824 643.307 353.824 643.31C353.823 643.317 353.822 643.326 353.821 643.337C353.818 643.36 353.815 643.392 353.81 643.433C353.8 643.516 353.787 643.636 353.77 643.791C353.736 644.103 353.687 644.559 353.626 645.152C353.506 646.337 353.34 648.069 353.155 650.287C352.786 654.721 352.339 661.099 352.026 668.925C351.401 684.566 351.306 706.054 353.442 729.404C357.668 775.614 370.795 831.118 407.977 861.638L415.591 852.362ZM615 919C570.41 919 484.361 908.81 415.591 852.362L407.977 861.638C479.834 920.619 569.159 931 615 931V919ZM702.612 882.908C686.755 899.914 658.27 919 615 919V931C662.162 931 693.677 910.086 711.388 891.092L702.612 882.908ZM741.129 809.701C739.838 809.277 739.837 808.156 739.972 809.006C740.132 810.007 740.062 811.932 739.395 814.956C738.09 820.872 734.981 828.945 730.781 837.784C722.358 855.506 710.4 874.556 702.612 882.908L711.388 891.092C720.385 881.444 732.967 861.14 741.619 842.935C745.955 833.811 749.517 824.777 751.113 817.541C751.897 813.989 752.335 810.326 751.822 807.115C751.286 803.754 749.433 799.796 744.871 798.299L741.129 809.701ZM713.251 806.176C720.985 806.9 727.498 807.61 732.402 808.249C737.561 808.921 740.36 809.448 741.129 809.701L744.871 798.299C742.813 797.624 738.793 796.98 733.952 796.349C728.856 795.685 722.188 794.96 714.369 794.228L713.251 806.176ZM702.375 838.539C710.705 827.138 716.592 814.199 719.641 801.615L707.979 798.789C705.303 809.834 700.088 821.328 692.685 831.461L702.375 838.539ZM698.881 843.347C700.015 841.783 701.174 840.183 702.375 838.539L692.685 831.461C691.469 833.126 690.296 834.744 689.164 836.306L698.881 843.347ZM621.229 885C643.975 885 658.806 881.598 670.481 874.163C681.936 866.868 689.689 856.033 698.881 843.347L689.164 836.306C679.635 849.456 673.195 858.208 664.035 864.041C655.096 869.734 642.892 873 621.229 873V885ZM521.086 844.332C540.889 863.312 553.891 873.878 568.309 879.358C582.687 884.823 597.95 885 621.229 885V873C597.414 873 584.505 872.677 572.572 868.141C560.68 863.621 549.233 854.688 529.39 835.668L521.086 844.332ZM497.319 811.923C502.343 822.802 510.11 833.812 521.086 844.332L529.39 835.668C519.394 826.088 512.551 816.286 508.214 806.892L497.319 811.923ZM498.494 819.144C500.799 817.689 503.237 816.15 505.893 814.529L499.64 804.286C496.897 805.961 494.387 807.545 492.088 808.997L498.494 819.144ZM437.861 819.114C451.808 827.673 461.898 831.698 471.591 830.996C481.08 830.309 489.124 825.059 498.494 819.144L492.088 808.997C481.907 815.424 476.597 818.603 470.725 819.028C465.056 819.438 457.776 817.256 444.139 808.886L437.861 819.114ZM369.784 644C363.961 645.446 363.961 645.447 363.962 645.449C363.962 645.45 363.963 645.452 363.963 645.455C363.965 645.46 363.966 645.468 363.969 645.477C363.974 645.497 363.981 645.525 363.99 645.563C364.009 645.637 364.036 645.747 364.073 645.891C364.145 646.18 364.253 646.605 364.394 647.16C364.676 648.269 365.094 649.893 365.637 651.965C366.723 656.108 368.31 662.042 370.322 669.227C374.344 683.59 380.07 702.981 386.879 723.053C393.678 743.094 401.606 763.961 410.048 781.215C414.269 789.841 418.678 797.687 423.211 804.122C427.686 810.473 432.567 815.864 437.861 819.114L444.139 808.886C440.879 806.886 437.119 803.027 433.021 797.21C428.982 791.477 424.887 784.238 420.827 775.941C412.709 759.351 404.971 739.031 398.243 719.197C391.525 699.394 385.863 680.223 381.878 665.992C379.886 658.879 378.316 653.01 377.245 648.922C376.709 646.879 376.299 645.281 376.022 644.197C375.884 643.655 375.78 643.242 375.71 642.965C375.675 642.827 375.649 642.722 375.632 642.654C375.624 642.619 375.617 642.594 375.613 642.577C375.611 642.569 375.609 642.563 375.609 642.559C375.608 642.557 375.608 642.556 375.608 642.555C375.607 642.554 375.607 642.554 369.784 644Z" fill="black"/></g><path id="Path" fill-rule="evenodd" clip-rule="evenodd" d="M698.059 729.721C698.059 729.721 701.033 737.719 699.086 738.906C697.74 739.726 669 722.832 616 723C563 723.168 534.188 739.683 532.914 738.906C530.905 737.681 533 732 534.94 729.721C541.033 724.945 571.31 714.711 602.246 712.449C606.205 712.16 610 716.002 616 716.001C622 716 626.18 712.101 629.327 712.287C661.138 714.165 691.805 724.818 698.059 729.721Z" fill="black" stroke="black" stroke-width="12" stroke-linecap="round" stroke-linejoin="round"/><path id="Path_2" fill-rule="evenodd" clip-rule="evenodd" d="M591 867C591 867 604.444 870 616 870C627.556 870 639 867 639 867L648 890H583L591 867Z" fill="black" stroke="black" stroke-width="12" stroke-linecap="round" stroke-linejoin="round"/></g></g>    </g>      </g>      </svg>